<svg width="245" height="176" viewBox="0 0 245 176" fill="none" xmlns="http://www.w3.org/2000/svg">
<path d="M175.186 176H143.447V133.031H31.875V176H0.136719V88.4756C0.136719 75.6989 2.33398 63.9395 6.72852 53.1973C11.123 42.4551 17.2266 33.2184 25.0391 25.4873C32.8516 17.7562 42.0882 11.734 52.749 7.4209C63.4098 3.10775 75.0472 0.951172 87.6611 0.951172H159.194C161.392 0.951172 163.467 1.35807 165.42 2.17188C167.373 2.98568 169.082 4.125 170.547 5.58984C172.012 7.05469 173.151 8.76367 173.965 10.7168C174.779 12.6699 175.186 14.7451 175.186 16.9424V176ZM31.875 101.293H143.447V32.6895H87.6611C86.6846 32.6895 84.6094 32.8522 81.4355 33.1777C78.3431 33.4219 74.7217 34.1136 70.5713 35.2529C66.5023 36.3923 62.1891 38.1419 57.6318 40.502C53.0745 42.862 48.8835 46.1172 45.0586 50.2676C41.2337 54.418 38.0599 59.6263 35.5371 65.8926C33.0957 72.0775 31.875 79.6051 31.875 88.4756V101.293ZM244.155 176H212.417V0.951172H244.155V176Z" fill="url(#paint0_linear_1069_30496)"/>
<defs>
<linearGradient id="paint0_linear_1069_30496" x1="124" y1="-72" x2="124" y2="247" gradientUnits="userSpaceOnUse">
<stop stop-color="#FF8D1E"/>
<stop offset="1" stop-color="#FF370C"/>
</linearGradient>
</defs>
</svg>
