<svg width="18" height="19" viewBox="0 0 18 19" fill="none" xmlns="http://www.w3.org/2000/svg">
<path d="M9 18.1709C6.7 18.1709 4.696 17.4086 2.988 15.8839C1.28 14.3592 0.300667 12.4549 0.05 10.1709H2.1C2.33333 11.9042 3.10433 13.3376 4.413 14.4709C5.72167 15.6042 7.25067 16.1709 9 16.1709C10.95 16.1709 12.6043 15.4919 13.963 14.1339C15.3217 12.7759 16.0007 11.1216 16 9.1709C15.9993 7.22023 15.3203 5.56623 13.963 4.2089C12.6057 2.85157 10.9513 2.17223 9 2.1709C7.85 2.1709 6.775 2.43757 5.775 2.9709C4.775 3.50423 3.93333 4.23757 3.25 5.1709H6V7.1709H0V1.1709H2V3.5209C2.85 2.45423 3.88767 1.62923 5.113 1.0459C6.33833 0.462565 7.634 0.170898 9 0.170898C10.25 0.170898 11.421 0.408565 12.513 0.883898C13.605 1.35923 14.555 2.00057 15.363 2.8079C16.171 3.61523 16.8127 4.56523 17.288 5.6579C17.7633 6.75057 18.0007 7.92157 18 9.1709C17.9993 10.4202 17.762 11.5912 17.288 12.6839C16.814 13.7766 16.1723 14.7266 15.363 15.5339C14.5537 16.3412 13.6037 16.9829 12.513 17.4589C11.4223 17.9349 10.2513 18.1722 9 18.1709ZM11.8 13.3709L8 9.5709V4.1709H10V8.7709L13.2 11.9709L11.8 13.3709Z" fill="#E31837"/>
</svg>
