<svg width="16" height="16" viewBox="0 0 16 16" fill="none" xmlns="http://www.w3.org/2000/svg">
<path fill-rule="evenodd" clip-rule="evenodd" d="M13.298 2.68289C12.918 2.75089 12.382 2.92689 11.522 3.21289L5.03002 5.37789C4.20202 5.65389 3.61802 5.84889 3.19802 6.01289C3.04417 6.07173 2.89332 6.13815 2.74602 6.21189C2.66002 6.25689 2.63002 6.28189 2.62802 6.28189C2.5317 6.37513 2.45512 6.48678 2.40281 6.61021C2.3505 6.73364 2.32355 6.86633 2.32355 7.00039C2.32355 7.13444 2.3505 7.26713 2.40281 7.39056C2.45512 7.51399 2.5317 7.62565 2.62802 7.71889C2.66568 7.74524 2.70511 7.76896 2.74602 7.78989C2.84602 7.84289 2.99102 7.90789 3.19802 7.98989C3.61802 8.15289 4.20202 8.34789 5.03002 8.62389L5.08602 8.64289C5.35902 8.73289 5.59902 8.81289 5.82002 8.92989C6.35278 9.21155 6.78836 9.64713 7.07002 10.1799C7.18702 10.3999 7.26702 10.6399 7.35702 10.9139L7.37702 10.9699C7.65202 11.7979 7.84702 12.3819 8.01102 12.8019C8.06798 12.9565 8.13444 13.1075 8.21002 13.2539C8.25502 13.3399 8.28002 13.3699 8.28002 13.3719C8.37326 13.4682 8.48492 13.5448 8.60835 13.5971C8.73178 13.6494 8.86447 13.6764 8.99852 13.6764C9.13258 13.6764 9.26527 13.6494 9.3887 13.5971C9.51213 13.5448 9.62378 13.4682 9.71702 13.3719C9.74337 13.3342 9.7671 13.2948 9.78802 13.2539C9.84102 13.1539 9.90602 13.0089 9.98802 12.8009C10.151 12.3809 10.346 11.7979 10.622 10.9709L12.785 4.47989C13.072 3.61989 13.248 3.08189 13.315 2.70289L13.32 2.67989L13.298 2.68289ZM12.948 0.713887C13.498 0.615887 14.253 0.586886 14.833 1.16689C15.413 1.74689 15.383 2.50089 15.286 3.05189C15.19 3.59389 14.963 4.27289 14.708 5.03889L14.684 5.11089L12.52 11.6009L12.51 11.6309C12.246 12.4229 12.036 13.0549 11.851 13.5269C11.678 13.9719 11.473 14.4319 11.163 14.7539C10.8831 15.0452 10.5472 15.2769 10.1755 15.4352C9.80384 15.5935 9.40401 15.6751 9.00002 15.6751C8.59604 15.6751 8.19621 15.5935 7.82453 15.4352C7.45284 15.2769 7.11696 15.0452 6.83702 14.7539C6.52702 14.4319 6.32202 13.9719 6.14902 13.5269C5.96402 13.0549 5.75402 12.4229 5.48902 11.6299L5.47902 11.6019C5.35902 11.2409 5.33202 11.1689 5.30302 11.1139C5.2091 10.9361 5.06378 10.7908 4.88602 10.6969C4.83102 10.6669 4.75902 10.6409 4.39802 10.5199L4.37002 10.5099C3.57702 10.2459 2.94502 10.0359 2.47202 9.85089C2.02802 9.67789 1.56802 9.47289 1.24602 9.16289C0.954749 8.88295 0.723014 8.54707 0.564719 8.17538C0.406423 7.8037 0.324829 7.40387 0.324829 6.99989C0.324829 6.5959 0.406423 6.19607 0.564719 5.82439C0.723014 5.45271 0.954749 5.11682 1.24602 4.83689C1.56802 4.52689 2.02802 4.32189 2.47202 4.14889C3.0997 3.91479 3.73252 3.69473 4.37002 3.48889L4.39802 3.47889L10.889 1.31589L10.961 1.29189C11.727 1.03689 12.406 0.809887 12.948 0.713887Z" fill="white"/>
</svg>
