<svg width="24" height="25" viewBox="0 0 24 25" fill="none" xmlns="http://www.w3.org/2000/svg">
<path d="M19 12.1459C19 10.7626 18.6333 9.50023 17.9 8.3589C17.1667 7.21756 16.1833 6.36323 14.95 5.7959C14.7 5.67923 14.5167 5.50023 14.4 5.2589C14.2833 5.01757 14.2667 4.77156 14.35 4.5209C14.45 4.25423 14.625 4.06257 14.875 3.9459C15.125 3.82923 15.3833 3.82923 15.65 3.9459C17.2667 4.66257 18.5627 5.75423 19.538 7.2209C20.5133 8.68757 21.0007 10.3292 21 12.1459C20.9993 13.9626 20.5117 15.6042 19.537 17.0709C18.5623 18.5376 17.2667 19.6292 15.65 20.3459C15.3833 20.4626 15.125 20.4626 14.875 20.3459C14.625 20.2292 14.45 20.0376 14.35 19.7709C14.2667 19.5209 14.2833 19.2752 14.4 19.0339C14.5167 18.7926 14.7 18.6132 14.95 18.4959C16.1833 17.9292 17.1667 17.0752 17.9 15.9339C18.6333 14.7926 19 13.5299 19 12.1459ZM7 15.1709H4C3.71667 15.1709 3.47933 15.0749 3.288 14.8829C3.09667 14.6909 3.00067 14.4536 3 14.1709V10.1709C3 9.88756 3.096 9.65023 3.288 9.4589C3.48 9.26756 3.71733 9.17157 4 9.1709H7L10.3 5.8709C10.6167 5.55423 10.9793 5.48323 11.388 5.6579C11.7967 5.83257 12.0007 6.14523 12 6.5959V17.7459C12 18.1959 11.796 18.5086 11.388 18.6839C10.98 18.8592 10.6173 18.7882 10.3 18.4709L7 15.1709ZM16.5 12.1709C16.5 12.8542 16.3543 13.5002 16.063 14.1089C15.7717 14.7176 15.3673 15.2299 14.85 15.6459C14.6667 15.7792 14.4793 15.8086 14.288 15.7339C14.0967 15.6592 14.0007 15.5049 14 15.2709V9.0209C14 8.78757 14.096 8.63356 14.288 8.5589C14.48 8.48423 14.6673 8.51323 14.85 8.6459C15.3667 9.06257 15.771 9.57923 16.063 10.1959C16.355 10.8126 16.5007 11.4709 16.5 12.1709ZM2 7.1709C1.71667 7.1709 1.47933 7.0749 1.288 6.8829C1.09667 6.6909 1.00067 6.45357 1 6.1709V3.1709C1 2.6209 1.196 2.15023 1.588 1.7589C1.98 1.36757 2.45067 1.17157 3 1.1709H6C6.28333 1.1709 6.521 1.2669 6.713 1.4589C6.905 1.6509 7.00067 1.88823 7 2.1709C6.99933 2.45357 6.90333 2.69123 6.712 2.8839C6.52067 3.07657 6.28333 3.17223 6 3.1709H3V6.1709C3 6.45423 2.904 6.6919 2.712 6.8839C2.52 7.0759 2.28267 7.17157 2 7.1709ZM18 23.1709C17.7167 23.1709 17.4793 23.0749 17.288 22.8829C17.0967 22.6909 17.0007 22.4536 17 22.1709C16.9993 21.8882 17.0953 21.6509 17.288 21.4589C17.4807 21.2669 17.718 21.1709 18 21.1709H21V18.1709C21 17.8876 21.096 17.6502 21.288 17.4589C21.48 17.2676 21.7173 17.1716 22 17.1709C22.2827 17.1702 22.5203 17.2662 22.713 17.4589C22.9057 17.6516 23.0013 17.8889 23 18.1709V21.1709C23 21.7209 22.8043 22.1919 22.413 22.5839C22.0217 22.9759 21.5507 23.1716 21 23.1709H18Z" fill="#E31837"/>
</svg>
